# xmcd
#
# Track frame offsets:
#	150
#	15787
#	32675
#	54687
#	74775
#	87962
#	102387
#	119440
#	133895
#	157345
#	175587
#	198525
#
# Disc length: 2938 seconds
#
# Revision: 1
# Processed by: cddbd v1.5.1PL0 Copyright (c) Steve Scherf et al.
# Submitted via: audiograbber 1.82.01
#
DISCID=ab0b780c
DTITLE=Percy Sledge - His Greatest Hits
DYEAR=1900
DGENRE=Oldies
TTITLE0=Takte Time to know her
TTITLE1=Cover me
TTITLE2=My Girl
TTITLE3=My Special Prayer
TTITLE4=Sweet Soul Music
TTITLE5=Warm and tender Love
TTITLE6=Just out of my reach
TTITLE7=Spooky
TTITLE8=Sitting on the dock
TTITLE9=Knock on wood
TTITLE10=When a man loves a woman
TTITLE11=Whiter shade of pale
EXTD=
EXTT0=
EXTT1=
EXTT2=
EXTT3=
EXTT4=
EXTT5=
EXTT6=
EXTT7=
EXTT8=
EXTT9=
EXTT10=
EXTT11=
PLAYORDER=
